<svg width="62" height="12" viewBox="0 0 62 12" fill="none" xmlns="http://www.w3.org/2000/svg">
<path d="M5.88109 0.304999C7.18109 0.304999 8.26109 0.634999 9.12109 1.295C9.98109 1.955 10.5611 2.85 10.8611 3.98H9.04609C8.79609 3.34 8.39609 2.835 7.84609 2.465C7.30609 2.085 6.64109 1.895 5.85109 1.895C5.22109 1.895 4.65609 2.05 4.15609 2.36C3.66609 2.67 3.27609 3.115 2.98609 3.695C2.70609 4.265 2.56609 4.935 2.56609 5.705C2.56609 6.465 2.70609 7.135 2.98609 7.715C3.27609 8.285 3.66609 8.725 4.15609 9.035C4.65609 9.345 5.22109 9.5 5.85109 9.5C6.64109 9.5 7.30609 9.315 7.84609 8.945C8.39609 8.565 8.79609 8.06 9.04609 7.43H10.8611C10.5611 8.56 9.98109 9.455 9.12109 10.115C8.26109 10.765 7.18109 11.09 5.88109 11.09C4.88109 11.09 3.99609 10.865 3.22609 10.415C2.45609 9.955 1.86109 9.32 1.44109 8.51C1.02109 7.69 0.811094 6.755 0.811094 5.705C0.811094 4.655 1.02109 3.725 1.44109 2.915C1.86109 2.095 2.45609 1.455 3.22609 0.994999C3.99609 0.534999 4.88109 0.304999 5.88109 0.304999ZM16.3472 2.63C17.1472 2.63 17.8672 2.8 18.5072 3.14C19.1472 3.48 19.6472 3.97 20.0072 4.61C20.3672 5.25 20.5472 6 20.5472 6.86C20.5472 7.73 20.3672 8.485 20.0072 9.125C19.6472 9.765 19.1472 10.255 18.5072 10.595C17.8672 10.935 17.1472 11.105 16.3472 11.105C15.5472 11.105 14.8272 10.935 14.1872 10.595C13.5572 10.255 13.0572 9.765 12.6872 9.125C12.3272 8.475 12.1472 7.72 12.1472 6.86C12.1472 6 12.3272 5.25 12.6872 4.61C13.0572 3.97 13.5572 3.48 14.1872 3.14C14.8272 2.8 15.5472 2.63 16.3472 2.63ZM16.3472 4.115C15.9072 4.115 15.5022 4.215 15.1322 4.415C14.7622 4.615 14.4622 4.925 14.2322 5.345C14.0122 5.755 13.9022 6.26 13.9022 6.86C13.9022 7.47 14.0122 7.98 14.2322 8.39C14.4622 8.8 14.7622 9.105 15.1322 9.305C15.5022 9.505 15.9072 9.605 16.3472 9.605C16.7872 9.605 17.1922 9.505 17.5622 9.305C17.9322 9.105 18.2272 8.8 18.4472 8.39C18.6772 7.98 18.7922 7.47 18.7922 6.86C18.7922 6.26 18.6772 5.755 18.4472 5.345C18.2272 4.925 17.9322 4.615 17.5622 4.415C17.1922 4.215 16.7872 4.115 16.3472 4.115ZM26.8113 2.6C27.7713 2.6 28.5413 2.91 29.1213 3.53C29.7013 4.15 29.9913 5.035 29.9913 6.185V11H28.2813V6.365C28.2813 5.625 28.0913 5.055 27.7113 4.655C27.3313 4.245 26.8113 4.04 26.1513 4.04C25.4713 4.04 24.9263 4.26 24.5163 4.7C24.1063 5.13 23.9013 5.765 23.9013 6.605V11H22.1913V2.735H23.9013V4.55C24.1213 3.93 24.4913 3.45 25.0112 3.11C25.5313 2.77 26.1313 2.6 26.8113 2.6ZM36.1461 9.515V11H35.0961C34.2161 11 33.5461 10.79 33.0861 10.37C32.6361 9.94 32.4111 9.23 32.4111 8.24V4.19H31.2261V2.735H32.4111V0.68H34.1361V2.735H36.1311V4.19H34.1361V8.27C34.1361 8.74 34.2211 9.065 34.3911 9.245C34.5711 9.425 34.8811 9.515 35.3211 9.515H36.1461ZM41.0629 2.63C41.8129 2.63 42.4529 2.815 42.9829 3.185C43.5129 3.555 43.8879 4.045 44.1079 4.655V2.735H45.8179V11H44.1079V9.08C43.8879 9.69 43.5129 10.18 42.9829 10.55C42.4529 10.92 41.8129 11.105 41.0629 11.105C40.3429 11.105 39.6979 10.935 39.1279 10.595C38.5679 10.255 38.1279 9.765 37.8079 9.125C37.4879 8.485 37.3279 7.73 37.3279 6.86C37.3279 6 37.4879 5.25 37.8079 4.61C38.1279 3.97 38.5679 3.48 39.1279 3.14C39.6979 2.8 40.3429 2.63 41.0629 2.63ZM41.5879 4.13C40.8279 4.13 40.2179 4.375 39.7579 4.865C39.3079 5.345 39.0829 6.01 39.0829 6.86C39.0829 7.71 39.3079 8.38 39.7579 8.87C40.2179 9.35 40.8279 9.59 41.5879 9.59C42.0679 9.59 42.4979 9.48 42.8779 9.26C43.2579 9.03 43.5579 8.71 43.7779 8.3C43.9979 7.89 44.1079 7.41 44.1079 6.86C44.1079 6.32 43.9979 5.845 43.7779 5.435C43.5579 5.015 43.2579 4.695 42.8779 4.475C42.4979 4.245 42.0679 4.13 41.5879 4.13ZM51.545 2.63C52.615 2.63 53.5 2.915 54.2 3.485C54.9 4.045 55.335 4.81 55.505 5.78H53.69C53.59 5.26 53.345 4.855 52.955 4.565C52.575 4.265 52.095 4.115 51.515 4.115C50.855 4.115 50.305 4.35 49.865 4.82C49.425 5.28 49.205 5.96 49.205 6.86C49.205 7.76 49.425 8.445 49.865 8.915C50.305 9.385 50.855 9.62 51.515 9.62C52.095 9.62 52.575 9.47 52.955 9.17C53.345 8.87 53.59 8.46 53.69 7.94H55.505C55.335 8.91 54.9 9.68 54.2 10.25C53.5 10.82 52.615 11.105 51.545 11.105C50.745 11.105 50.035 10.935 49.415 10.595C48.805 10.255 48.325 9.765 47.975 9.125C47.625 8.485 47.45 7.73 47.45 6.86C47.45 6 47.625 5.25 47.975 4.61C48.325 3.97 48.805 3.48 49.415 3.14C50.035 2.8 50.745 2.63 51.545 2.63ZM61.3121 9.515V11H60.2621C59.3821 11 58.7121 10.79 58.2521 10.37C57.8021 9.94 57.5771 9.23 57.5771 8.24V4.19H56.3921V2.735H57.5771V0.68H59.3021V2.735H61.2971V4.19H59.3021V8.27C59.3021 8.74 59.3871 9.065 59.5571 9.245C59.7371 9.425 60.0471 9.515 60.4871 9.515H61.3121Z" fill="#344563"/>
</svg>
