<svg width="322" height="588" viewBox="0 0 322 588" fill="none" xmlns="http://www.w3.org/2000/svg">
<rect width="26.4618" height="4.7339" transform="matrix(0.757375 0.65298 0.65298 -0.757375 21.1846 47.5859)" fill="#6070FF"/>
<ellipse cx="26.304" cy="59.2115" rx="5.5" ry="5" transform="rotate(52.9708 26.304 59.2115)" fill="#CBCDFF"/>
<rect x="85.8242" y="549" width="68.0631" height="12.1762" transform="rotate(23.34 85.8242 549)" fill="#EBEBFF"/>
<circle cx="141" cy="563.096" r="10" fill="#6070FF"/>
<path d="M228.907 465.5C230.426 463.69 231.498 461.548 232.036 459.247C232.573 456.945 232.562 454.55 232.001 452.254C231.441 449.958 230.348 447.827 228.81 446.032C227.273 444.237 225.335 442.83 223.152 441.924C220.97 441.017 218.604 440.638 216.248 440.816C213.891 440.994 211.61 441.724 209.588 442.948C207.566 444.171 205.861 445.854 204.611 447.859C203.36 449.864 202.6 452.136 202.39 454.49L208.841 455.063C208.96 453.722 209.393 452.428 210.106 451.286C210.818 450.144 211.79 449.185 212.941 448.488C214.093 447.791 215.393 447.375 216.735 447.273C218.078 447.172 219.425 447.388 220.669 447.905C221.912 448.421 223.016 449.223 223.892 450.245C224.768 451.268 225.391 452.482 225.71 453.79C226.029 455.098 226.036 456.462 225.73 457.773C225.423 459.084 224.813 460.305 223.947 461.336L228.907 465.5Z" fill="#EBEBFF"/>
<path d="M212.497 429C212.278 432.194 213.337 435.344 215.441 437.757C217.545 440.171 220.521 441.649 223.715 441.868C226.909 442.087 230.059 441.028 232.472 438.924C234.885 436.82 236.364 433.844 236.583 430.65L212.497 429Z" fill="#6070FF"/>
<circle cx="115.5" cy="13.5006" r="7" fill="white" stroke="#CBCDFF"/>
<circle cx="197.5" cy="216.501" r="5" fill="white" stroke="#CBCDFF"/>
<path d="M315.241 74.9707C311.195 67.7882 305.514 61.6596 298.659 57.0809C291.803 52.5023 283.966 49.6024 275.782 48.616C267.597 47.6297 259.295 48.5846 251.548 51.4034C243.802 54.2222 236.827 58.8258 231.191 64.8413C225.554 70.8568 221.413 78.1152 219.103 86.0287C216.793 93.9422 216.379 102.289 217.895 110.392C219.411 118.495 222.813 126.127 227.828 132.671C232.842 139.215 239.326 144.485 246.756 148.057L256.543 127.696C252.31 125.661 248.616 122.658 245.759 118.931C242.903 115.203 240.964 110.855 240.101 106.238C239.237 101.622 239.473 96.8668 240.789 92.3585C242.105 87.8502 244.464 83.7151 247.675 80.2881C250.886 76.861 254.86 74.2384 259.273 72.6325C263.686 71.0266 268.416 70.4826 273.079 71.0446C277.741 71.6065 282.206 73.2586 286.112 75.867C290.017 78.4754 293.254 81.9669 295.559 86.0588L315.241 74.9707Z" fill="#6070FF"/>
<rect x="188" y="61.7906" width="95.5804" height="22.021" transform="rotate(-30 188 61.7906)" fill="#EBEBFF"/>
</svg>
