<svg width="61" height="13" viewBox="0 0 61 13" fill="none" xmlns="http://www.w3.org/2000/svg">
<path d="M2.15369 7.89V12H0.443691V1.41H4.04369C5.26369 1.41 6.17869 1.7 6.78869 2.28C7.40869 2.86 7.71869 3.655 7.71869 4.665C7.71869 5.665 7.40369 6.455 6.77369 7.035C6.14369 7.605 5.23369 7.89 4.04369 7.89H2.15369ZM3.86369 6.495C5.27369 6.495 5.97869 5.885 5.97869 4.665C5.97869 4.065 5.80869 3.61 5.46869 3.3C5.13869 2.98 4.60369 2.82 3.86369 2.82H2.15369V6.495H3.86369ZM12.9981 3.63C13.7981 3.63 14.5181 3.8 15.1581 4.14C15.7981 4.48 16.2981 4.97 16.6581 5.61C17.0181 6.25 17.1981 7 17.1981 7.86C17.1981 8.73 17.0181 9.485 16.6581 10.125C16.2981 10.765 15.7981 11.255 15.1581 11.595C14.5181 11.935 13.7981 12.105 12.9981 12.105C12.1981 12.105 11.4781 11.935 10.8381 11.595C10.2081 11.255 9.70811 10.765 9.33811 10.125C8.97811 9.475 8.79811 8.72 8.79811 7.86C8.79811 7 8.97811 6.25 9.33811 5.61C9.70811 4.97 10.2081 4.48 10.8381 4.14C11.4781 3.8 12.1981 3.63 12.9981 3.63ZM12.9981 5.115C12.5581 5.115 12.1531 5.215 11.7831 5.415C11.4131 5.615 11.1131 5.925 10.8831 6.345C10.6631 6.755 10.5531 7.26 10.5531 7.86C10.5531 8.47 10.6631 8.98 10.8831 9.39C11.1131 9.8 11.4131 10.105 11.7831 10.305C12.1531 10.505 12.5581 10.605 12.9981 10.605C13.4381 10.605 13.8431 10.505 14.2131 10.305C14.5831 10.105 14.8781 9.8 15.0981 9.39C15.3281 8.98 15.4431 8.47 15.4431 7.86C15.4431 7.26 15.3281 6.755 15.0981 6.345C14.8781 5.925 14.5831 5.615 14.2131 5.415C13.8431 5.215 13.4381 5.115 12.9981 5.115ZM20.5521 5.355C20.8321 4.815 21.2321 4.39 21.7521 4.08C22.2721 3.76 22.8721 3.6 23.5521 3.6V5.46H23.0421C22.2921 5.46 21.6871 5.645 21.2271 6.015C20.7771 6.375 20.5521 6.975 20.5521 7.815V12H18.8421V3.735H20.5521V5.355ZM28.9883 10.515V12H27.9383C27.0583 12 26.3883 11.79 25.9283 11.37C25.4783 10.94 25.2533 10.23 25.2533 9.24V5.19H24.0683V3.735H25.2533V1.68H26.9783V3.735H28.9733V5.19H26.9783V9.27C26.9783 9.74 27.0633 10.065 27.2333 10.245C27.4133 10.425 27.7233 10.515 28.1633 10.515H28.9883ZM34.3702 3.63C35.1702 3.63 35.8902 3.8 36.5302 4.14C37.1702 4.48 37.6702 4.97 38.0302 5.61C38.3902 6.25 38.5702 7 38.5702 7.86C38.5702 8.73 38.3902 9.485 38.0302 10.125C37.6702 10.765 37.1702 11.255 36.5302 11.595C35.8902 11.935 35.1702 12.105 34.3702 12.105C33.5702 12.105 32.8502 11.935 32.2102 11.595C31.5802 11.255 31.0802 10.765 30.7102 10.125C30.3502 9.475 30.1702 8.72 30.1702 7.86C30.1702 7 30.3502 6.25 30.7102 5.61C31.0802 4.97 31.5802 4.48 32.2102 4.14C32.8502 3.8 33.5702 3.63 34.3702 3.63ZM34.3702 5.115C33.9302 5.115 33.5252 5.215 33.1552 5.415C32.7852 5.615 32.4852 5.925 32.2552 6.345C32.0352 6.755 31.9252 7.26 31.9252 7.86C31.9252 8.47 32.0352 8.98 32.2552 9.39C32.4852 9.8 32.7852 10.105 33.1552 10.305C33.5252 10.505 33.9302 10.605 34.3702 10.605C34.8102 10.605 35.2152 10.505 35.5852 10.305C35.9552 10.105 36.2502 9.8 36.4702 9.39C36.7002 8.98 36.8152 8.47 36.8152 7.86C36.8152 7.26 36.7002 6.755 36.4702 6.345C36.2502 5.925 35.9552 5.615 35.5852 5.415C35.2152 5.215 34.8102 5.115 34.3702 5.115ZM44.0692 2.025C43.3992 1.995 42.9292 2.105 42.6592 2.355C42.3892 2.595 42.2542 3.01 42.2542 3.6V3.735H44.0692V5.205H42.2542V12H40.5292V5.205H39.4042V3.735H40.5292V3.465C40.5292 2.455 40.8242 1.7 41.4142 1.2C42.0042 0.69 42.8892 0.464999 44.0692 0.524999V2.025ZM47.1537 0.9V12H45.4437V0.9H47.1537ZM48.983 1.335C48.983 1.045 49.083 0.805 49.283 0.614999C49.483 0.424999 49.748 0.329999 50.078 0.329999C50.408 0.329999 50.673 0.424999 50.873 0.614999C51.083 0.805 51.188 1.045 51.188 1.335C51.188 1.625 51.083 1.86 50.873 2.04C50.673 2.22 50.408 2.31 50.078 2.31C49.748 2.31 49.483 2.22 49.283 2.04C49.083 1.86 48.983 1.625 48.983 1.335ZM50.933 3.735V12H49.223V3.735H50.933ZM56.7823 3.63C57.5823 3.63 58.3023 3.8 58.9423 4.14C59.5823 4.48 60.0823 4.97 60.4423 5.61C60.8023 6.25 60.9823 7 60.9823 7.86C60.9823 8.73 60.8023 9.485 60.4423 10.125C60.0823 10.765 59.5823 11.255 58.9423 11.595C58.3023 11.935 57.5823 12.105 56.7823 12.105C55.9823 12.105 55.2623 11.935 54.6223 11.595C53.9923 11.255 53.4923 10.765 53.1223 10.125C52.7623 9.475 52.5823 8.72 52.5823 7.86C52.5823 7 52.7623 6.25 53.1223 5.61C53.4923 4.97 53.9923 4.48 54.6223 4.14C55.2623 3.8 55.9823 3.63 56.7823 3.63ZM56.7823 5.115C56.3423 5.115 55.9373 5.215 55.5673 5.415C55.1973 5.615 54.8973 5.925 54.6673 6.345C54.4473 6.755 54.3373 7.26 54.3373 7.86C54.3373 8.47 54.4473 8.98 54.6673 9.39C54.8973 9.8 55.1973 10.105 55.5673 10.305C55.9373 10.505 56.3423 10.605 56.7823 10.605C57.2223 10.605 57.6273 10.505 57.9973 10.305C58.3673 10.105 58.6623 9.8 58.8823 9.39C59.1123 8.98 59.2273 8.47 59.2273 7.86C59.2273 7.26 59.1123 6.755 58.8823 6.345C58.6623 5.925 58.3673 5.615 57.9973 5.415C57.6273 5.215 57.2223 5.115 56.7823 5.115Z" fill="#344563"/>
</svg>
